:SAMPLES-PER-SECOND 30
:FULLY-SPECIFIED
:DEGREES
93
root  10.92 47.4904 2.37154 44.3163 -80.599 -43.0022
RightUpLeg  -35.2647 -14.4417 9.58506
RightLeg  48.9753 -2.63227 -3.61853
RightFoot  -16.3229 -0.138027 -0.637523
RightToes  0.00048216 0.542163 -0.142577
Spine  28.341 -4.62708 22.927
Spine1  4.1269 0.0262711 3.2257
HEad  -7.71048 -9.13209 -2.86786
LeftShoulder1  8.9851 -14.0728 -44.5276
LeftArm  -2.05534 10.6977 -33.7445
LeftForeArm  46.4993 -40.6354 -6.67281
LeftHand  -0.25398 0.0180481 5.50724
RightShoulder  5.10622 9.21774 34.1872
RightArm  -6.72852 -2.15891 30.6592
RightForeArm  2.44208 16.4585 5.67454
RightHand  -1.80523 5.39138 -19.6328
LeftUpLeg  -25.323 9.24427 8.62406
LeftLeg  77.1728 0.657401 4.75202
LeftFoot  8.307 0.644436 -3.99201
LeftToes  1.06247e-005 4.65855e-005 -8.185e-006
94
root  9.77553 48.2591 2.24381 39.1503 -80.8804 -37.7679
RightUpLeg  -31.0652 -15.5675 8.55392
RightLeg  45.2433 -2.16448 -2.67821
RightFoot  -16.9543 -0.129201 -0.293497
RightToes  0.00048216 0.542163 -0.142577
Spine  27.9979 -4.18134 22.5365
Spine1  4.25225 0.528141 2.41441
HEad  -7.44406 -9.66995 -3.64475
LeftShoulder1  9.12227 -14.0552 -45.2846
LeftArm  -2.13176 11.4864 -32.5981
LeftForeArm  44.8328 -38.226 -6.09969
LeftHand  -0.25398 0.0180481 5.50724
RightShoulder  5.29687 9.27054 35.4958
RightArm  -4.31351 1.57818 28.6771
RightForeArm  -0.918493 20.1642 5.19006
RightHand  -1.84395 5.44975 -19.9348
LeftUpLeg  -31.8726 8.05868 7.25601
LeftLeg  85.3581 -0.0479039 4.50459
LeftFoot  3.42558 0.239622 -2.06578
LeftToes  1.06247e-005 4.65855e-005 -8.185e-006
95
root  8.60288 48.9402 2.11251 35.1051 -81.2189 -33.95
RightUpLeg  -26.5369 -16.3377 7.58299
RightLeg  41.4205 -1.82955 -2.04045
RightFoot  -17.3354 -0.128089 -0.205724
RightToes  0.00048216 0.542163 -0.142577
Spine  27.8183 -3.67214 22.0478
Spine1  4.27149 1.12554 1.46451
HEad  -6.78109 -9.93712 -4.56126
LeftShoulder1  9.19939 -14.0239 -45.7662
LeftArm  -1.74088 11.8924 -31.5389
LeftForeArm  42.8713 -35.0059 -5.37335
LeftHand  -0.25398 0.0180481 5.50724
RightShoulder  5.36089 9.23955 36.0853
RightArm  -4.30497 4.55961 27.5755
RightForeArm  -2.96833 24.0562 5.24695
RightHand  -1.91135 5.57865 -20.4046
LeftUpLeg  -37.2579 7.46566 6.22213
LeftLeg  89.8298 -0.39034 3.92329
LeftFoot  -0.0569456 0.208749 -2.13279
LeftToes  1.06247e-005 4.65855e-005 -8.185e-006
96
root  7.40403 49.4937 1.97508 31.4666 -81.8422 -30.5896
RightUpLeg  -22.2654 -16.5517 6.53898
RightLeg  38.1163 -1.57512 -1.61548
RightFoot  -17.6121 -0.131432 -0.224702
RightToes  0.00048216 0.542163 -0.142577
Spine  27.6397 -2.99308 21.1388
Spine1  4.07722 1.78516 0.409736
HEad  -5.6892 -9.88449 -5.11821
LeftShoulder1  9.18921 -13.9972 -45.7859
LeftArm  -1.5034 12.535 -30.6702
LeftForeArm  40.9255 -31.753 -4.69246
LeftHand  -0.25398 0.0180481 5.50724
RightShoulder  5.30107 9.12785 35.9857
RightArm  -5.63667 6.85604 27.4371
RightForeArm  -3.4886 27.7127 6.16293
RightHand  -1.96701 5.68943 -20.7778
LeftUpLeg  -41.5422 7.52895 5.04951
LeftLeg  90.7128 -0.436475 3.63692
LeftFoot  -2.38624 0.230194 -2.74679
LeftToes  1.06247e-005 4.65855e-005 -8.185e-006
97
root  6.15961 49.8914 1.83855 25.9768 -82.7705 -24.8932
RightUpLeg  -19.0618 -16.2387 5.25618
RightLeg  35.8826 -1.40717 -1.36983
RightFoot  -18.1773 -0.137637 -0.243492
RightToes  0.00048216 0.542163 -0.142577
Spine  26.6557 -2.01479 19.4416
Spine1  4.23186 2.29979 -0.358115
HEad  -4.55436 -9.4875 -5.21529
LeftShoulder1  9.15537 -13.9687 -45.6885
LeftArm  -1.61827 13.4942 -29.5774
LeftForeArm  39.3035 -29.2112 -4.20025
LeftHand  -0.25398 0.0180481 5.50724
RightShoulder  5.25526 9.10614 35.7017
RightArm  -6.3311 8.85051 27.8964
RightForeArm  -3.6646 31.2713 7.06185
RightHand  -1.94177 5.46024 -20.932
LeftUpLeg  -45.1367 8.00341 3.18695
LeftLeg  88.3949 -0.285972 3.79242
LeftFoot  -4.3884 0.209808 -3.02531
LeftToes  1.06247e-005 4.65855e-005 -8.185e-006
98
root  4.85628 50.1316 1.71174 18.4102 -83.6712 -16.6562
RightUpLeg  -16.826 -15.6438 3.95743
RightLeg  34.6563 -1.48483 -1.37399
RightFoot  -19.2035 -0.150135 -0.292944
RightToes  0.00048216 0.542163 -0.142577
Spine  24.6392 -0.897693 17.2582
Spine1  4.90699 2.61314 -0.762319
HEad  -3.54563 -8.80273 -5.18935
LeftShoulder1  9.13054 -13.8822 -45.795
LeftArm  -1.29892 14.5007 -27.9912
LeftForeArm  37.6212 -27.2876 -3.86749
LeftHand  -0.25398 0.0180481 5.50724
RightShoulder  5.28856 9.20975 35.6251
RightArm  -6.58977 10.7503 28.5364
RightForeArm  -3.00415 34.4714 7.8899
RightHand  -1.8846 5.08909 -21.0213
LeftUpLeg  -47.8188 8.65709 0.942439
LeftLeg  83.1758 0.0358362 3.59149
LeftFoot  -5.22325 0.220914 -3.52844
LeftToes  1.06247e-005 4.65855e-005 -8.185e-006
99
root  3.51246 50.2052 1.60776 13.372 -84.3278 -11.214
RightUpLeg  -14.6721 -14.996 3.12369
RightLeg  34.2425 -1.74506 -1.54538
RightFoot  -20.6013 -0.144694 -0.0716807
RightToes  0.00048216 0.542163 -0.142577
Spine  22.5464 -0.0420846 15.592
Spine1  5.53537 2.91443 -1.36631
HEad  -2.4624 -7.95884 -5.19584
LeftShoulder1  9.0659 -13.7317 -45.8698
LeftArm  -0.0153485 15.6525 -26.226
LeftForeArm  35.0848 -25.5149 -3.61574
LeftHand  -0.25398 0.0180481 5.50724
RightShoulder  5.33159 9.28291 35.7218
RightArm  -6.05991 12.3043 29.2889
RightForeArm  -1.96901 37.0743 8.59162
RightHand  -1.84756 4.89159 -20.9994
LeftUpLeg  -48.6041 9.45249 -0.905105
LeftLeg  75.5001 0.257232 2.42178
LeftFoot  -3.85161 0.27709 -3.90773
LeftToes  1.06247e-005 4.65855e-005 -8.185e-006
